<?xml version="1.0" encoding="UTF-8" standalone="no"?>
<!DOCTYPE svg PUBLIC "-//W3C//DTD SVG 1.1//EN" "http://www.w3.org/Graphics/SVG/1.1/DTD/svg11.dtd">
<svg width="100%" height="100%" viewBox="0 0 84 66" version="1.1" xmlns="http://www.w3.org/2000/svg" xmlns:xlink="http://www.w3.org/1999/xlink" xml:space="preserve" xmlns:serif="http://www.serif.com/" style="fill-rule:evenodd;clip-rule:evenodd;stroke-linecap:round;stroke-linejoin:bevel;stroke-miterlimit:2;">
    <g transform="matrix(1,0,0,1,-1296,-441)">
        <g>
            <g transform="matrix(3.95313e-16,-49.9985,-62.3592,4.36661e-16,1329.93,491.677)">
                <path d="M1,0.467C1,0.503 0.97,0.533 0.933,0.533L0.267,0.533C0.23,0.533 0.2,0.503 0.2,0.467L0.2,0.4L0.3,0.4L0.3,0.433L0.9,0.433L0.9,-0.233L0.867,-0.233L0.867,-0.333L0.933,-0.333C0.97,-0.333 1,-0.303 1,-0.267L1,0.467ZM0.8,0.267C0.8,0.303 0.77,0.333 0.733,0.333L0.067,0.333C0.03,0.333 0,0.303 0,0.267L0,-0.467C0,-0.503 0.03,-0.533 0.067,-0.533L0.733,-0.533C0.77,-0.533 0.8,-0.503 0.8,-0.467L0.8,0.267ZM0.7,0.233L0.7,-0.433L0.1,-0.433L0.1,0.233L0.7,0.233ZM0.317,-0.017L0.417,0.083L0.333,0.167L0.167,0.167L0.167,-0.367L0.467,-0.367L0.567,-0.267L0.317,-0.017Z" style="fill:rgb(1,38,63);fill-rule:nonzero;"/>
            </g>
            <g transform="matrix(0.875125,0,0,0.875125,362.542,144.34)">
                <circle cx="1140.81" cy="392.416" r="18.128" style="fill:rgb(1,38,63);stroke:rgb(249,249,249);stroke-width:5.71px;"/>
            </g>
            <g transform="matrix(1,0,0,1,1393.26,1229.43)">
                <g transform="matrix(0.789902,0,0,1.14124,-933.902,-1187.44)">
                    <path d="M1150.82,390.595C1150.82,389.645 1149.7,388.874 1148.33,388.874L1134.31,388.874C1132.94,388.874 1131.83,389.645 1131.83,390.595C1131.83,391.545 1132.94,392.316 1134.31,392.316L1148.33,392.316C1149.7,392.316 1150.82,391.545 1150.82,390.595Z" style="fill:rgb(249,249,249);"/>
                </g>
                <g transform="matrix(4.83676e-17,0.789902,-1.14124,6.98809e-17,413.39,-1643.21)">
                    <path d="M1150.82,390.595C1150.82,389.645 1149.7,388.874 1148.33,388.874L1134.31,388.874C1132.94,388.874 1131.83,389.645 1131.83,390.595C1131.83,391.545 1132.94,392.316 1134.31,392.316L1148.33,392.316C1149.7,392.316 1150.82,391.545 1150.82,390.595Z" style="fill:rgb(249,249,249);"/>
                </g>
            </g>
        </g>
    </g>
</svg>
